<svg id="Layer_1" data-name="Layer 1" xmlns="http://www.w3.org/2000/svg" viewBox="0 0 67 67"><defs><style>.cls-1{fill:#5191fa;}</style></defs><title>Untitled-5</title><g id="People"><g id="Icon-37"><path id="map" class="cls-1" d="M33.66,14.28a1.92,1.92,0,1,0-1.92-1.92,1.92,1.92,0,0,0,1.92,1.92Zm-5.74-1.92c0,2,1.75,4.89,2.68,6.13l3.06,3.82,3.08-3.85c.92-1.05,2.66-4.12,2.66-6.1a5.74,5.74,0,0,0-11.48,0Zm1.16,7.3c-.33-.45-3.08-4.21-3.08-7.3a7.66,7.66,0,0,1,15.31,0c0,2.64-2.06,6.13-3.11,7.33l-3.8,4.75a.93.93,0,0,1-.74.36,1,1,0,0,1-.75-.36Zm15.1,37.67a1,1,0,0,0,1-1V42.74l12.7-3.63a1,1,0,0,0,.65-1.18,1,1,0,0,0-1.18-.66L43.92,41.1a1,1,0,0,0-.7.92V56.37a1,1,0,0,0,1,1Zm-3.83-1a1,1,0,0,0,1-.95V42a1,1,0,0,0-.65-.9L27.26,36.6a1,1,0,0,0-.61,1.81l12.75,4.3V55.42a1,1,0,0,0,1,.95ZM19,30.58,9.46,33.45a1,1,0,0,0,.28,1.87.84.84,0,0,0,.27,0l9.57-2.87A1,1,0,0,0,19,30.58Zm4.1-18.22a1,1,0,0,0-.95,1V30.54a1,1,0,0,0,.65.91l17.22,5.74a1,1,0,0,0,.3.05.94.94,0,0,0,.56-.18,1,1,0,0,0,.4-.78V21.93a1,1,0,1,0-1.91,0V35l-15.31-5.1V13.32a1,1,0,0,0-1-1Zm37.33.87a3.71,3.71,0,0,0-3.15-.83L43.92,16.23a1,1,0,0,0-.7.92V36.28a1,1,0,0,0,.38.77,1,1,0,0,0,.84.15l13.4-3.83a1,1,0,0,0-.53-1.84L45.14,35V17.87l12.63-3.61a1.81,1.81,0,0,1,1.48.46,3.23,3.23,0,0,1,1.19,2.43V53.5c0,1.26-.95,2.13-3.13,2.91L44.22,60.15,24.09,52.83V36.28a1,1,0,0,0-.38-.76,1,1,0,0,0-.84-.16L9.48,39.19A1,1,0,0,0,10,41l12.18-3.48v16a1,1,0,0,0,.63.9l21,7.65a1,1,0,0,0,.33.06,1.09,1.09,0,0,0,.26,0l13.45-3.85c1.22-.43,4.47-1.58,4.47-4.73V17.15a5.18,5.18,0,0,0-1.9-3.92ZM20.22,54.33a1,1,0,0,1-.66,1.19L10,58.25a3.31,3.31,0,0,1-.93.13,3.51,3.51,0,0,1-2.13-.74A5.31,5.31,0,0,1,5,53.5V17.15C5,14,8.2,12.85,9.42,12.42L22.87,8.57a1,1,0,0,1,.53,1.84L10,14.24c-2.18.77-3.13,1.65-3.13,2.91V53.5a3.44,3.44,0,0,0,1.22,2.61,1.56,1.56,0,0,0,1.39.3L19,53.68a1,1,0,0,1,1.18.65Z"/></g></g></svg>