<svg id="Layer_1" data-name="Layer 1" xmlns="http://www.w3.org/2000/svg" viewBox="0 0 66.02 56.42"><defs><style>.cls-1{fill:none;stroke:#5191fa;stroke-miterlimit:10;stroke-width:2px;}.cls-2{fill:#5191fa;}</style></defs><title>Untitled-5</title><rect class="cls-1" x="5.1" y="5.38" width="55.83" height="45.67" rx="4.45" ry="4.45"/><line class="cls-1" x1="5.31" y1="15.14" x2="60.66" y2="15.14"/><circle class="cls-2" cx="47.68" cy="10.29" r="1.35"/><circle class="cls-2" cx="51.52" cy="10.29" r="1.35"/><circle class="cls-2" cx="55.36" cy="10.29" r="1.35"/><polygon class="cls-2" points="12.99 26.27 13.98 29.31 17.18 29.31 14.59 31.19 15.58 34.23 12.99 32.35 10.41 34.23 11.39 31.19 8.81 29.31 12.01 29.31 12.99 26.27"/><polygon class="cls-2" points="22.84 26.27 23.83 29.31 27.02 29.31 24.44 31.19 25.43 34.23 22.84 32.35 20.25 34.23 21.24 31.19 18.66 29.31 21.85 29.31 22.84 26.27"/><polygon class="cls-2" points="32.69 26.27 33.68 29.31 36.87 29.31 34.29 31.19 35.27 34.23 32.69 32.35 30.1 34.23 31.09 31.19 28.5 29.31 31.7 29.31 32.69 26.27"/><polygon class="cls-2" points="42.54 26.27 43.52 29.31 46.72 29.31 44.13 31.19 45.12 34.23 42.54 32.35 39.95 34.23 40.94 31.19 38.35 29.31 41.55 29.31 42.54 26.27"/><polygon class="cls-2" points="52.38 26.27 53.37 29.31 56.57 29.31 53.98 31.19 54.97 34.23 52.38 32.35 49.8 34.23 50.78 31.19 48.2 29.31 51.4 29.31 52.38 26.27"/></svg>