<svg id="Layer_1" data-name="Layer 1" xmlns="http://www.w3.org/2000/svg" viewBox="0 0 68.12 68.12"><defs><style>.cls-1{fill:#5191fa;}</style></defs><title>Untitled-5</title><path class="cls-1" d="M24.69,6A14.06,14.06,0,0,0,10.64,20v10.3a6.56,6.56,0,0,0,6.56,6.56h.93V35H17.2a4.7,4.7,0,0,1-4.69-4.69V20a12.18,12.18,0,1,1,24.36,0v10.3A4.69,4.69,0,0,1,32.19,35h-.94v1.87h.94a6.56,6.56,0,0,0,6.56-6.56V20A14.07,14.07,0,0,0,24.69,6Zm-11,44.16L14.36,49l-1.58-1-.69,1.08a9.33,9.33,0,0,0,.39,10.57v2.49h1.87V59.36a.93.93,0,0,0-.2-.58,7.48,7.48,0,0,1-.47-8.67Z"/><path class="cls-1" d="M45.31,6H57.49a4.69,4.69,0,0,1,4.68,4.69V20a4.69,4.69,0,0,1-4.68,4.68h-4.3L48.78,29.1a.94.94,0,0,1-1.6-.66V24.69H45.31A4.69,4.69,0,0,1,40.62,20V10.64A4.7,4.7,0,0,1,45.31,6ZM57.49,22.82A2.81,2.81,0,0,0,60.3,20V10.64a2.81,2.81,0,0,0-2.81-2.81H45.31a2.81,2.81,0,0,0-2.82,2.81V20a2.81,2.81,0,0,0,2.82,2.81h2.81a.94.94,0,0,1,.93.94v2.42l3.09-3.09a1,1,0,0,1,.66-.27Z"/><path class="cls-1" d="M45.31,10.64h6.55v1.87H45.31Zm8.43,0h3.75v1.87H53.74Zm-8.43,3.75H57.49v1.87H45.31Zm0,3.74h6.55V20H45.31Zm-8,31L36.61,48,35,49l.68,1.08a7.46,7.46,0,0,1-.47,8.66.93.93,0,0,0-.21.59v2.81h1.88V59.68A9.35,9.35,0,0,0,37.29,49.11Z"/><polygon class="cls-1" points="21.82 46.24 24.71 50.28 27.76 46.24 21.82 46.24 21.82 46.24"/><path class="cls-1" d="M61.24,37.81H52.8a6.55,6.55,0,0,0-6.54,6.29l-2.83,5.09V45.31a6.56,6.56,0,0,0-6.56-6.56H33.45l0,0v0H31.25a1.88,1.88,0,0,1-1.87-1.88v-2.2a9.37,9.37,0,0,0,4.68-8.1v-7.5a9.48,9.48,0,0,0-1.12-4.45.94.94,0,0,0-1.22-.4L15.86,21.68a1,1,0,0,0-.54.85v4A9.37,9.37,0,0,0,20,34.67v2.2a1.88,1.88,0,0,1-1.88,1.88H12.51A6.57,6.57,0,0,0,6,45.31V62.17H7.83V45.31a4.69,4.69,0,0,1,4.68-4.69h3l8.44,11.79a.92.92,0,0,0,.75.39h0a.93.93,0,0,0,.75-.37l8.9-11.81h2.53a4.69,4.69,0,0,1,4.69,4.69V52.8a.93.93,0,0,0,1.75.46l4.42-7.95H53.1L44,62.17H46.1l9.14-16.86h.37a6.57,6.57,0,0,0,6.56-6.56A.94.94,0,0,0,61.24,37.81ZM24.6,34a7.49,7.49,0,0,1-7.4-7.4V23.13l14.46-6.81a7.39,7.39,0,0,1,.53,2.75v7.5A7.49,7.49,0,0,1,24.6,34Zm31,9.46h-7.4a4.71,4.71,0,0,1,4.59-3.75h7.4A4.68,4.68,0,0,1,55.61,43.43Z"/></svg>